<?xml version="1.0" encoding="utf-8"?>
<!-- Generator: Adobe Illustrator 27.3.1, SVG Export Plug-In . SVG Version: 6.00 Build 0)  -->
<svg version="1.1" id="Camada_1" xmlns="http://www.w3.org/2000/svg" xmlns:xlink="http://www.w3.org/1999/xlink" x="0px" y="0px"
	 viewBox="0 0 1890 1890" style="enable-background:new 0 0 1890 1890;" xml:space="preserve">
<style type="text/css">
	.st0{fill:#FFFFFF;}
	.st1{fill:#6A67D5;}
</style>
<g>
	<path class="st0" d="M927.5,1871.3c-191.6-3.2-380.4-67.9-534-183c-39.3-29.5-65.3-52-101-87.8c-46.3-46.3-82.3-90-117-142.5
		C84.3,1320.5,33,1166.6,23,1000.5c-1.4-23.2-1.4-82.8,0-106c10-166.2,61.5-320.6,152.6-457.7c35.2-52.9,70.4-95.8,116.9-142.3
		c35.6-35.7,61.6-58.3,101-87.8C537.7,98.6,709.8,36,892.5,25c23.2-1.4,82.8-1.4,106,0c182.7,11,354.8,73.6,499,181.7
		c39.4,29.5,65.4,52.1,101,87.8c46.5,46.5,81.7,89.4,116.9,142.3c91.1,137.1,142.6,291.5,152.6,457.7c1.4,23.2,1.4,82.8,0,106
		c-10,166.1-61.3,320-152.5,457.5c-34.7,52.5-70.7,96.2-117,142.5s-90,82.3-142.5,117C1298.4,1822,1118.1,1874.5,927.5,1871.3z
		 M1198.1,1619.2c5.1-2.5,11.8-8.7,16.1-15c8.6-12.5,10.7-26.8,5.6-37.2c-1.5-3-4.2-6.9-6-8.7c-1.8-1.7-19.3-13.5-38.8-26.1
		c-42.9-27.8-40.4-23.9-27.4-41.8c85.6-117.1,179.5-266,258.9-409.9c71.2-129.2,106.2-220.1,118.9-308.7
		c6.9-47.6,5.8-94.9-2.9-136.9c-14.3-68.4-46.3-127.3-95.1-175c-62.3-60.8-142.4-90.3-213.9-78.8c-66.8,10.7-137.1,53.8-205.6,126
		C963.6,553.7,949.1,574.7,904,658c-19.1,35.3-34.8,63-39.2,69.3c-3.8,5.4-6.1,4.3-25.6-12.6c-102.6-88.9-169.6-126.8-243.7-137.8
		c-59.7-8.9-127.2,9.1-178.4,47.4c-11.7,8.7-34.4,31.1-43.3,42.7c-28.8,37.4-46.9,79.8-55.3,129.4c-8.2,48.7-4.6,99.3,11,152.9
		c31.4,108.6,103.2,205.8,218.5,295.9c78.3,61.1,236.1,158.1,428.8,263.3l31.1,17l0.1,3.7c0,2.1-1,6.1-2.2,9
		c-1.6,3.9-2.2,7.4-2.2,13.3c0,7,0.4,8.8,3.2,14.6c5.9,12.2,16.6,21.5,29.9,26c16.8,5.5,33.1,0.2,45.4-14.9c3.4-4.1,4.9-5.2,7.2-5.2
		c2,0,16.8,7.7,45.4,23.6c23.3,12.9,43.8,24.2,45.6,25C1184.6,1622.5,1192.5,1621.9,1198.1,1619.2L1198.1,1619.2z M471,1587.9
		c7.6-1.7,26.6-11.6,33.6-17.6c4.1-3.6,16.7-17.9,20.4-23.3c5-7.3,13.6-24.7,16.1-32.3c5.7-17.7,8-37.3,5.9-50.3
		c-4.8-30.2-21.7-56.3-48.3-74.7c-10-6.9-13.6-8.6-29.2-14c-8.4-2.8-9.9-3-23.1-3c-8.3,0.1-15,0.6-16.2,1.2
		c-1.1,0.6-2.9,1.1-3.9,1.1c-2.3,0-20.5,7.9-21.8,9.4c-0.5,0.7-3.2,3-6,5.1c-11.6,8.8-21.2,22.3-27.5,38.5
		c-5.3,13.8-9.3,35.5-8.4,45.5c1.4,15.4,9.4,45.3,14.6,54.4c1.6,3,3.6,7.1,4.3,9.1c1.3,3.7,7.5,12.4,17.4,24.3
		c11.6,14.1,30.4,25.2,46.1,27.3C454.1,1589.8,463.7,1589.5,471,1587.9z M1397.1,1542.7c15.1-4,26.4-12.6,33.6-25.2
		c2.2-3.8,6.2-10.8,8.8-15.5c2.7-4.7,7-12.3,9.5-17s6.6-12.1,9.2-16.5c8.2-14.5,22.4-39.9,24.7-44.5c2.6-5,8.2-15.1,19.2-34.5
		c4-7.1,8.8-16.1,10.6-19.8c1.9-3.7,5.1-9.6,7.2-13s6.1-10.9,9-16.7c2.9-5.8,5.7-10.9,6.1-11.5c1.5-1.8,22.3-40.2,38.5-71
		c3.1-6,7.2-13.5,9-16.5s6-10.9,9.5-17.5s11.1-21,17-32s15.8-29.7,22-41.5s13.2-24.9,15.5-29c6.6-11.8,27.1-50.9,30.1-57.4
		c3.4-7.5,6.4-18.9,6.4-24.6c0-15.5-11.6-36.9-24.9-45.9c-24.4-16.6-47.5-18-70.7-4.3c-13.2,7.7-20.9,17.9-36.5,47.7
		c-15,28.9-24.1,46-26.1,49.5c-2.2,3.7-6.8,12.4-20.5,39c-4.7,9.1-8.9,17-9.4,17.5c-0.7,0.9-5.1,9.3-21.1,40.5
		c-2.7,5.2-7.3,14-10.3,19.5c-2.9,5.5-8.2,15.6-11.8,22.5c-3.5,6.9-8.4,16.3-10.9,21c-4.8,8.9-17.2,33-31.9,61.5
		c-4.8,9.4-12.4,24.2-16.9,33c-40.4,78.4-63.5,125-64.8,130.5c-1.6,6.8-1.5,19.3,0.2,25.5c2.7,10.1,10.8,22.8,19.9,31.2
		c7,6.4,19.3,12.8,29.4,15.2C1386.8,1545.4,1386.9,1545.4,1397.1,1542.7L1397.1,1542.7z M262.7,1317.5c5-1.3,11.1-3.3,13.5-4.5
		c11-5.1,23.7-20.9,26.9-33.3c3.7-14.1,2.2-21.1-10.6-49.7c-13.8-31-14.4-32.4-15.1-35c-0.4-1.4-1.5-4.3-2.5-6.5s-2.8-7.4-4-11.5
		s-3.2-9.8-4.6-12.6c-1.3-2.9-3-7.4-3.8-10c-3.8-13.3-5.4-18.3-6.3-20c-2-3.8-14.1-54.9-17.7-74.9c-3.7-20.4-4.6-27-6.6-45.5
		c-0.6-5.8-1.5-14.1-1.9-18.5c-5.6-52.7-2.4-142.3,6.7-186c1.3-6.6,2.8-14.7,3.3-18c2.1-15.1,12.7-58.8,18.4-75.6
		c1.4-4.1,3.3-9.6,4.2-12.4c0.9-2.7,2-5.9,2.4-7c0.5-1.1,1.2-3.1,1.5-4.5c1-3.8,6.5-18.1,8.1-21.2c0.8-1.4,1.4-3.1,1.4-3.8
		s1.3-4,2.9-7.4c1.6-3.3,3.5-7.9,4.2-10.1c0.7-2.2,2.1-5.1,3.1-6.4c1-1.3,1.8-3,1.8-3.8s1.6-4.7,3.5-8.6c1.9-3.9,3.5-7.5,3.5-8
		c0-0.4,1.1-2.3,2.4-4c1.3-1.8,2.9-5,3.6-7.2s2.5-5.8,3.9-8c1.5-2.2,3.3-5.8,4-8s1.9-4.7,2.6-5.5c1.3-1.4,2.8-4.2,11-19.5
		c2.1-3.8,4.4-7.7,5-8.5c0.7-0.8,2.5-3.7,4-6.4c1.5-2.6,4.9-7.6,7.6-10.9c2.7-3.4,4.9-6.7,4.9-7.4c0-0.8,3.1-6,6.8-11.6
		c7.9-12,9.3-15,12.7-27.7c2.9-11.1,3-14.1,0.9-22.4c-1.9-7.7-3.7-11.6-8.8-19.1c-7.7-11.5-19.6-22-28.6-25.4c-1.9-0.7-6-2.2-9-3.4
		c-6.9-2.6-15.2-2.7-25-0.3c-9.6,2.4-11.6,3.4-22.7,11.7c-8.9,6.7-9.4,7.2-22.2,26.6c-7.2,10.9-14.2,21.4-15.6,23.5
		c-1.4,2-2.5,3.9-2.5,4.2c0,0.4-2.5,4.7-5.5,9.7s-5.5,9.2-5.5,9.5s-1.5,2.8-3.3,5.7s-3.9,6.6-4.7,8.2c-0.8,1.7-2.4,4.6-3.5,6.5
		c-1.2,1.9-2.7,5.1-3.5,7c-0.7,1.9-2.6,5.4-4.2,7.7c-1.5,2.3-2.8,4.5-2.8,5c0,0.4-1.5,4-3.4,7.8c-1.9,3.9-4.8,9.9-6.4,13.5
		c-1.7,3.6-4.6,9.9-6.5,14c-5.1,11.1-8.5,19.1-9.3,22.3c-0.3,1.6-1.8,5.2-3.2,8c-1.3,2.9-2.8,6.3-3.3,7.7c-0.4,1.4-2.4,7-4.4,12.5
		s-4.2,12-4.9,14.5s-1.8,5.4-2.4,6.5c-0.6,1.1-2.2,6.1-3.7,11c-1.4,5-3.5,11.5-4.5,14.5c-2.6,7.7-15.4,56.7-17.5,67
		c-0.9,4.7-2.3,11.4-3,15c-2.3,11.4-3.4,18.2-4.9,30c-0.9,6.4-2,13.8-2.6,16.5c-1.3,6-2.3,15.3-5,46.5c-1.6,18.2-2.1,31.7-2.1,60
		c-0.1,31.6,1.3,67.8,2.6,71.8c0.3,0.7,1.1,7.4,2,15c0.8,7.5,1.9,16.4,2.5,19.7c0.5,3.3,1.9,11.9,3,19
		c4.3,27.5,14.7,70.8,26.2,108.5c1.1,3.6,2.6,9,3.4,12c0.8,3,2.6,7.8,3.9,10.5c1.3,2.8,3.1,7.1,4,9.8c3.9,12,4.9,14.6,8.1,21.2
		c1.9,3.9,3.4,7.4,3.4,8c0,0.5,1.1,3.2,2.5,6c1.3,2.7,6.1,13.1,10.6,23c4.6,9.9,9.5,20.1,11.1,22.6c1.5,2.5,2.8,5.1,2.8,5.7
		c0,2.7,14.1,24.3,19.8,30.4c7.7,8.3,12.7,11.3,22.7,13.6c10,2.4,12.5,2.9,14,3.1C253.1,1319.9,257.6,1318.9,262.7,1317.5
		L262.7,1317.5z M1715,871c11.1-1.3,16.2-2.7,23.5-6.3c20.6-10.2,38.7-28.5,47-47.7c1.6-3.6,3.2-7,3.7-7.6c0.9-1.3,3.2-8.3,5.6-16.9
		c2.3-8.6,2.3-44.6,0-52.5c-2.7-9-4.4-13-10-24c-11.7-23.1-35.7-41.4-61.8-47c-7.5-1.6-28.9-0.9-36,1.2c-13.4,4-29.4,14-40.6,25.4
		c-7.4,7.7-9.9,11-13.6,18.6c-7.1,14.4-7.7,16.2-8.4,24.8c-0.7,7.6-0.9,8.2-3.5,9.6c-4.3,2.2-12.5,13-14.9,19.6
		c-1.6,4.4-2,7.4-1.7,11.1c1,10.4,5,25.9,7.6,29.1c0.4,0.6,1.1,2.5,1.5,4.1c1.2,5.1,10.4,18,20,28.3c2.3,2.4,7.7,7,12.1,10.1
		c16.1,11.7,31.5,18.2,46.5,19.9C1703.9,872.1,1705.5,872.1,1715,871L1715,871z"/>
	<path class="st0" d="M454.6,1522.3c-7.4-1.1-16.6-10.2-21.8-21.7c-3.9-8.3-7-23.6-7.1-35.1c-0.2-10.7-0.1-11.2,3.2-17.8
		c3.6-7.2,7.9-10.7,14.8-12.2c5-1,19.1,1.4,25.7,4.4c10.6,4.9,21.6,16.1,21.6,22.1c0,1.1,1,3.8,2.1,6c2,3.7,2.1,5.3,1.7,15.3
		c-0.5,10-0.8,11.9-3.7,17.4c-1.7,3.4-4.4,7.6-6.1,9.3c-1.6,1.7-3,3.5-3,3.9c0,1.7-9.6,6.9-14.8,8
		C461.9,1523,459.9,1523.1,454.6,1522.3L454.6,1522.3z"/>
	<path class="st0" d="M1696.5,797.4c-11.3-3-20.4-9.1-29.6-19.6l-6.1-7.2l0.6-5.5c0.4-3.1,0.9-8.7,1.2-12.6c0.7-9.8,1-11,4.4-14.9
		c2.8-3.2,7.2-5.2,18.5-8.6c4.4-1.3,17.4-0.9,24,0.7c11.8,3,20.9,10.9,23,20.3c1.1,4.9,1,18.7-0.2,23.5c-1.2,5.1-5.8,14.3-8.6,17.3
		c-4,4.4-9.6,6.5-17.7,6.8C1701.9,797.8,1697.6,797.6,1696.5,797.4L1696.5,797.4z"/>
</g>
<g>
	<path class="st1" d="M1181.5,1624.9c-2.3-0.5-23.9-11.9-48-25.4l-44-24.4l-3.5,4.2c-14.3,17.1-32,22.4-52.8,15.6
		c-12.7-4.2-23.6-13.7-29.5-25.8c-2.9-6.1-3.2-7.3-3.2-17.1c0-8.7,0.4-11.6,2.4-16.8c1.3-3.4,2.2-6.4,2-6.6
		c-0.2-0.1-17.5-9.6-38.4-21.1c-195-107.1-342.9-198.1-421.5-259.3c-115-89.7-187.1-187.3-218.5-295.9
		c-9.4-32.1-14.2-62.6-15.2-94.8c-2.2-73.2,18.4-140.1,59.5-193.5c8.9-11.6,31.6-34,43.3-42.7c35-26.2,76.5-42.6,122.4-48.4
		c15.8-2,45.4-1.5,62,1c74.3,11.1,141.1,48.9,243.7,137.8l17.7,15.3l1.9-2.8c4.4-6.2,20.1-33.9,39.2-69.2
		c45.1-83.3,59.6-104.3,103.9-150.9c85.6-90.3,172.8-134.2,254.4-128.1c44.9,3.3,85.3,17.4,124.7,43.4
		c58.6,38.7,105.6,99.5,128.8,166.7c13.4,38.7,18.9,70.8,19.9,114.4c0.6,29.1-0.4,47.6-4.3,74.3c-12.7,88.6-47.7,179.5-118.9,308.7
		c-79.4,143.9-173.3,292.8-258.9,409.9c-6.9,9.5-8.4,12.2-7.4,13.1c0.7,0.6,17.1,11.4,36.5,23.9c19.6,12.6,36.6,24.3,38.4,26.4
		c5.9,6.7,7.4,11.4,7.3,23.2c0,9.1-0.4,11.4-2.7,17C1214.4,1616.8,1197,1628.6,1181.5,1624.9L1181.5,1624.9z"/>
	<path class="st1" d="M442,1591.6c-15.7-2.1-34.5-13.2-46.1-27.3c-9.9-11.9-16.1-20.6-17.4-24.3c-0.7-2-2.7-6.1-4.3-9.1
		c-4.9-8.6-14.1-42.1-14.2-51.2c0-2-0.5-4.5-1-5.5c-1.1-1.7,1.2-20,4.3-34.2c4.6-21.2,17.2-42.2,32.2-53.5c2.8-2.1,5.5-4.4,6-5.1
		c1.3-1.5,19.5-9.4,21.8-9.4c1,0,3.1-0.7,4.7-1.5c2.3-1.2,6.2-1.4,19.2-1.2c15.1,0.3,16.9,0.6,25.3,3.4c15.6,5.4,19.2,7.1,29.2,14
		c26.6,18.4,43.5,44.5,48.3,74.6c2.4,14.9,0,38.3-5.9,56.4c-2.5,7.6-11.1,25-16.1,32.3c-3.7,5.4-16.3,19.7-20.4,23.3
		c-7.8,6.6-26.1,16-35.6,18.1C464.3,1593.1,453.8,1593.2,442,1591.6L442,1591.6z M474.8,1514.6c2.3-1.6,4.2-3.2,4.2-3.7
		s1.4-2.2,3-3.9c1.7-1.7,4.4-5.9,6.2-9.3c2.7-5.5,3.1-7.2,3.2-15.2c0.1-6.8-0.3-9.7-1.6-12.2c-1-1.8-1.8-4.2-1.8-5.3
		c0-3.2-5.3-10.8-10.6-15.2c-12-10.1-28.6-13.8-37.7-8.5c-3.5,2.1-5.1,4-7.7,9.4c-3.1,6.2-3.4,7.5-3.2,15c0.2,8.6,3.7,24.8,7,31.9
		c5.3,11.5,14.5,20.7,21.8,21.6C462.2,1519.8,470.1,1517.6,474.8,1514.6L474.8,1514.6z"/>
	<path class="st1" d="M1373.7,1545.9c-10.1-2.4-22.4-8.8-29.4-15.2c-9.1-8.4-17.2-21.1-19.9-31.2c-1.7-6.2-1.8-24.6-0.2-31.5
		c1.3-5.5,24.4-52.1,64.8-130.5c4.5-8.8,12.1-23.6,16.9-33c14.7-28.5,27.1-52.6,31.9-61.5c2.5-4.7,7.4-14.1,10.9-21
		c3.6-6.9,8.9-17,11.8-22.5c3-5.5,7.6-14.3,10.3-19.5c16-31.2,20.4-39.6,21.1-40.5c0.5-0.5,4.7-8.4,9.4-17.5
		c13.7-26.6,18.3-35.3,20.5-39c2-3.5,11.1-20.6,26.1-49.5c15.6-29.8,23.3-40,36.5-47.7c11.7-6.9,20.1-9.2,34.1-9.2
		c10-0.1,13.3,0.3,19.5,2.3c14.6,4.6,26.3,11.9,33.4,20.8c16,20.2,18.9,43.5,8.2,66.9c-3,6.5-23.5,45.6-30.1,57.4
		c-2.3,4.1-9.3,17.2-15.5,29s-16.1,30.5-22,41.5s-13.5,25.4-17,32s-7.7,14.5-9.5,17.5s-5.9,10.5-9,16.5c-16.2,30.8-37,69.2-38.5,71
		c-0.4,0.6-3.2,5.7-6.1,11.5s-6.9,13.3-9,16.7c-2.1,3.4-5.3,9.3-7.2,13c-1.8,3.7-6.6,12.7-10.6,19.8c-11,19.4-16.6,29.5-19.2,34.5
		c-2.3,4.6-16.5,30-24.7,44.5c-2.6,4.4-6.7,11.8-9.2,16.5s-6.8,12.3-9.5,17c-2.6,4.7-6.6,11.7-8.8,15.5
		c-7.2,12.6-18.5,21.2-33.6,25.2C1389.8,1548.4,1384.1,1548.5,1373.7,1545.9L1373.7,1545.9z"/>
	<path class="st1" d="M246.5,1322.3c-20.3-4.2-24.5-6.2-33.7-16.1c-5.7-6.1-19.8-27.7-19.8-30.4c0-0.6-1.3-3.2-2.8-5.7
		c-1.6-2.5-6.5-12.7-11.1-22.6c-4.5-9.9-9.3-20.3-10.6-23c-1.4-2.8-2.5-5.5-2.5-6c0-0.6-1.5-4.1-3.4-8c-3.2-6.6-4.2-9.2-8.1-21.2
		c-0.9-2.7-2.7-7-4-9.8c-1.3-2.7-3.1-7.5-3.9-10.5c-0.8-3-2.3-8.4-3.4-12c-11.5-37.7-21.9-81-26.2-108.5c-1.1-7.1-2.5-15.7-3-19
		c-0.9-5.7-3.1-23.3-5-41c-1.7-15.7-2.9-53.5-2.5-81c0.5-31,4.5-82.9,7.5-97c0.6-2.7,1.7-10.1,2.6-16.5c1.5-11.8,2.6-18.6,4.9-30
		c0.7-3.6,2.1-10.3,3-15c2.1-10.3,14.9-59.3,17.5-67c1-3,3.1-9.5,4.5-14.5c1.5-4.9,3.1-9.9,3.7-11c0.6-1.1,1.7-4,2.4-6.5
		s2.9-9,4.9-14.5s4-11.1,4.4-12.5c0.5-1.4,2-4.8,3.3-7.7c1.4-2.8,2.9-6.4,3.2-8c0.8-3.2,4.2-11.2,9.3-22.3c1.9-4.1,4.8-10.4,6.5-14
		c1.6-3.6,4.5-9.6,6.4-13.5c1.9-3.8,3.4-7.4,3.4-7.8c0-0.5,1.3-2.7,2.8-5c1.6-2.3,3.5-5.8,4.2-7.7c0.8-1.9,2.3-5.1,3.5-7
		c1.1-1.9,2.7-4.8,3.5-6.5c0.8-1.6,2.9-5.3,4.7-8.2s3.3-5.4,3.3-5.7c0-0.3,2.5-4.5,5.5-9.5s5.5-9.3,5.5-9.7c0-0.3,1.1-2.2,2.5-4.2
		c1.4-2.1,8.4-12.6,15.6-23.5c12.8-19.4,13.3-19.9,22.2-26.6c12.8-9.5,13.3-9.7,31.9-13.6c7.1-1.4,8.2-1.4,14.5,0.1
		c3.7,1,9.2,2.8,12.2,4.1c2.9,1.2,5.8,2.3,6.3,2.3c1.9,0,13.3,8.7,17.8,13.6c5.2,5.5,11.9,15.1,14.3,20.4c0.9,1.9,2.5,7.2,3.7,11.7
		c2.3,9.2,1.9,13.7-2,28.3c-2.9,10.7-4.6,14.2-12.2,25.7c-3.7,5.6-6.8,10.8-6.8,11.6c0,0.7-2.2,4-4.9,7.4c-2.7,3.3-6.1,8.3-7.6,10.9
		c-1.5,2.7-3.3,5.6-4,6.4c-0.6,0.8-2.9,4.7-5,8.5c-8.2,15.3-9.7,18.1-11,19.5c-0.7,0.8-1.9,3.3-2.6,5.5s-2.5,5.8-4,8
		c-1.4,2.2-3.2,5.8-3.9,8c-0.7,2.2-2.3,5.4-3.6,7.2c-1.3,1.7-2.4,3.6-2.4,4c0,0.5-1.6,4.1-3.5,8s-3.5,7.8-3.5,8.6s-0.8,2.5-1.8,3.8
		s-2.4,4.2-3.1,6.4s-2.6,6.8-4.2,10.1c-1.6,3.4-2.9,6.7-2.9,7.4s-0.6,2.4-1.4,3.8c-1.6,3.1-7.1,17.4-8.1,21.2
		c-0.3,1.4-1,3.4-1.5,4.5c-0.4,1.1-1.5,4.3-2.4,7c-0.9,2.8-2.8,8.3-4.2,12.4c-5.7,16.8-16.3,60.5-18.4,75.6c-0.5,3.3-2,11.4-3.3,18
		c-8.7,42-12,128.5-6.7,179.5c3.8,37.8,4.2,40.8,8.5,64.5c3.6,20,15.7,71.1,17.7,74.9c0.9,1.7,2.5,6.7,6.3,20
		c0.8,2.6,2.5,7.1,3.8,10c1.4,2.8,3.4,8.5,4.6,12.6s3,9.3,4,11.5s2.1,5.1,2.5,6.5c0.7,2.6,1.3,4,15.1,35
		c4.8,10.7,9.5,22.7,10.6,26.5c2.4,8.9,2.4,20,0,29.2c-3.2,12.4-15.9,28.2-26.9,33.3C269.2,1320.7,253.4,1323.8,246.5,1322.3
		L246.5,1322.3z"/>
	<path class="st1" d="M1689,873.8c-23.5-2.6-49.4-17.8-66.7-39.3c-6-7.5-11.1-15.6-11.9-19c-0.4-1.6-1.1-3.5-1.5-4.1
		c-3.1-3.9-6.9-20.2-7.6-32.1c-0.4-6.7,0-9.3,1.7-14.1c2.4-6.7,10.6-17.4,14.9-19.6c2.6-1.4,2.8-2,3.5-9.6
		c0.7-8.6,1.3-10.4,8.4-24.8c3.7-7.6,6.2-10.9,13.6-18.6c9-9.2,14.6-13.2,28.1-20.1c11.1-5.8,16.2-6.9,33.5-7.3
		c21.9-0.5,31.1,1.8,48.6,12c8.1,4.6,12.1,7.9,19.5,15.6c7.9,8.1,10.3,11.4,14.7,20.2c10.9,21.4,11.6,24.6,11.6,53
		c0,18.5-0.3,24.8-1.6,29.5c-2.4,8.7-4.7,15.6-5.6,16.9c-0.5,0.6-2.1,4-3.7,7.6c-8.3,19.2-26.4,37.5-47,47.7
		C1728.4,874.2,1710.8,876.2,1689,873.8L1689,873.8z M1714.7,792.2c5-2.6,7.5-5.5,10.9-12.2c8-16,5.9-32.1-5.3-40.6
		c-6.2-4.9-12.4-7-22.7-8.1c-8-0.8-23.2,4.3-27.6,9.3c-3.4,3.9-3.7,5-4.4,15.4c-0.2,4.1-0.7,8.4-1.1,9.6c-0.5,1.6,0.7,3.7,5.5,9.2
		c9.1,10.5,18.2,16.6,29.5,19.6C1703,795.3,1710.8,794.2,1714.7,792.2z"/>
</g>
</svg>
