<?xml version="1.0" encoding="utf-8"?>
<!DOCTYPE svg PUBLIC "-//W3C//DTD SVG 1.0//EN" "http://www.w3.org/TR/2001/REC-SVG-20010904/DTD/svg10.dtd">
<svg version="1.0" xmlns="http://www.w3.org/2000/svg" width="1890px" height="1890px" viewBox="0 0 1890 1890" preserveAspectRatio="xMidYMid meet">
 <g fill="#6a67d5">
  <path d="M927.5 1871.3 c-191.6 -3.2 -380.4 -67.9 -534 -183 -39.3 -29.5 -65.3 -52 -101 -87.8 -46.3 -46.3 -82.3 -90 -117 -142.5 -91.2 -137.5 -142.5 -291.4 -152.5 -457.5 -1.4 -23.2 -1.4 -82.8 0 -106 10 -166.2 61.5 -320.6 152.6 -457.7 35.2 -52.9 70.4 -95.8 116.9 -142.3 35.6 -35.7 61.6 -58.3 101 -87.8 144.2 -108.1 316.3 -170.7 499 -181.7 23.2 -1.4 82.8 -1.4 106 0 182.7 11 354.8 73.6 499 181.7 39.4 29.5 65.4 52.1 101 87.8 46.5 46.5 81.7 89.4 116.9 142.3 91.1 137.1 142.6 291.5 152.6 457.7 1.4 23.2 1.4 82.8 0 106 -10 166.1 -61.3 320 -152.5 457.5 -34.7 52.5 -70.7 96.2 -117 142.5 -46.3 46.3 -90 82.3 -142.5 117 -157.6 104.5 -337.9 157 -528.5 153.8z m270.6 -252.1 c5.1 -2.5 11.8 -8.7 16.1 -15 8.6 -12.5 10.7 -26.8 5.6 -37.2 -1.5 -3 -4.2 -6.9 -6 -8.7 -1.8 -1.7 -19.3 -13.5 -38.8 -26.1 -34.4 -22.2 -35.5 -23.1 -35.8 -26.4 -0.3 -2.9 1.6 -5.9 15.7 -25.3 l15.9 -22 -4.1 -3.5 c-21.5 -18.1 -47.1 -42.5 -64 -60.8 l-8.6 -9.4 -6.5 10.1 c-3.6 5.5 -12.7 20.2 -20.3 32.7 l-13.8 22.6 -3.5 -0.4 c-2.5 -0.3 -14.9 -7.7 -44 -26.4 -72.2 -46.5 -128 -81.8 -207.7 -131.5 -108.5 -67.7 -133.3 -84.1 -173.8 -114.4 -55.6 -41.6 -102.5 -86.2 -132.6 -126 -34.7 -46 -61.8 -101.1 -73.8 -150.4 -13.1 -53.6 -10.4 -101.6 7.6 -137.6 7.2 -14.3 13.8 -23.2 26.2 -35.6 22 -21.9 50.1 -37.2 80.1 -43.6 12.2 -2.6 51.7 -2.6 64 0 42.2 8.9 84.2 31.3 134.5 71.5 17.3 13.9 35.7 29.9 67.3 58.5 47.4 43.1 48.1 43.6 58.5 46.9 7.8 2.4 14.8 2.2 22.8 -0.5 14.7 -5 24.7 -13.9 42.5 -37.7 22.3 -29.8 35 -50.7 73.4 -120.5 31 -56.3 48.1 -84 67.7 -109.3 35.2 -45.4 74 -75.7 121.5 -94.8 31.7 -12.7 64.8 -14.9 98.4 -6.4 35.4 8.9 71.7 33.1 97.3 65 36.7 45.6 51.6 97 48.1 165.5 -0.9 16.4 -3.3 39.4 -4.6 43.6 -0.4 1.3 1.7 2.4 10.5 5.2 18.9 6.2 41.2 9.5 70.2 10.4 l19.7 0.6 0.6 -2.9 c5.9 -29.2 7.1 -83.6 2.7 -117 -10.7 -80.1 -44.4 -148.4 -99.7 -202.5 -62.3 -60.8 -142.4 -90.3 -213.9 -78.8 -66.8 10.7 -137.1 53.8 -205.6 126 -44.3 46.6 -58.8 67.6 -103.9 150.9 -19.1 35.3 -34.8 63 -39.2 69.3 -3.8 5.4 -6.1 4.3 -25.6 -12.6 -102.6 -88.9 -169.6 -126.8 -243.7 -137.8 -59.7 -8.9 -127.2 9.1 -178.4 47.4 -11.7 8.7 -34.4 31.1 -43.3 42.7 -28.8 37.4 -46.9 79.8 -55.3 129.4 -8.2 48.7 -4.6 99.3 11 152.9 31.4 108.6 103.2 205.8 218.5 295.9 78.3 61.1 236.1 158.1 428.8 263.3 l31.1 17 0.1 3.7 c0 2.1 -1 6.1 -2.2 9 -1.6 3.9 -2.2 7.4 -2.2 13.3 0 7 0.4 8.8 3.2 14.6 5.9 12.2 16.6 21.5 29.9 26 16.8 5.5 33.1 0.2 45.4 -14.9 3.4 -4.1 4.9 -5.2 7.2 -5.2 2 0 16.8 7.7 45.4 23.6 23.3 12.9 43.8 24.2 45.6 25 4.3 1.9 12.2 1.3 17.8 -1.4z m66.5 -169.2 c48.7 -19.4 108 -55.9 155.4 -95.9 15.2 -12.7 41.5 -39 52.9 -52.6 62.8 -75.4 103.3 -176.7 116 -290 3.4 -30.4 4.3 -46.8 4.4 -78.5 0 -37.4 -2.9 -77.5 -7.3 -103.4 l-1.2 -6.3 -6.1 2.2 c-18.3 6.7 -39.1 8.9 -74.5 8.2 -25.6 -0.6 -36.7 -1.6 -57.7 -5.3 -45.1 -8 -87.9 -27.7 -113.8 -52.3 l-9.2 -8.8 -5.3 3.8 c-17.3 12.2 -46.1 22.9 -75.3 27.8 -34.8 6 -83.1 4.6 -122.9 -3.5 -21.6 -4.4 -49.2 -14.5 -59.3 -21.6 -1.6 -1.2 -3.2 -1.7 -3.7 -1.2 -2.4 2.4 -14.3 39.6 -20.9 65.4 -23.1 89.6 -28.9 178.8 -17 260.5 9 61.8 32.3 129.4 60.4 175.5 33.6 55.3 84.6 111.1 141.3 154.8 12.7 9.7 33.8 24.2 35.3 24.2 0.5 0 4.3 -1.4 8.5 -3z m216.2 0.9 c3 -1.5 5.4 -3.8 7.7 -7.3 14.8 -22.9 176.7 -322.8 178.4 -330.5 1.1 -5.4 -0.7 -10.6 -5.5 -16 -8 -8.9 -19.7 -11.8 -28.6 -7 l-4.3 2.4 -3.3 13.5 c-12.6 51.8 -24.6 86.2 -43.6 125.5 -11.4 23.5 -18.6 36.1 -33.1 58 -21 31.7 -36.9 51.7 -60.1 75.5 l-12.2 12.5 -12.1 24.3 c-8.9 17.9 -12.1 25.3 -12.1 28 0 7.8 8.9 18.4 18.3 21.9 4.5 1.6 5.5 1.6 10.5 -0.8z m-1140.2 -31.5 c26.5 -7.3 47.8 -48.9 40.9 -79.8 -7.7 -34.8 -46.6 -60.9 -76.7 -51.6 -22.3 6.9 -36.3 28 -36.9 55.5 -0.2 11.3 3.1 22.5 11.3 39 9.8 19.6 26.6 34.4 43.1 38 6.6 1.4 10 1.2 18.3 -1.1z m-100.3 -210.7 c4.5 -2.7 7.7 -7.2 7.7 -10.8 0 -1.7 -2.5 -6.1 -6.8 -12 -29.4 -40.4 -50.8 -79.9 -68.1 -125.7 -45.4 -120 -43.8 -255.5 4.4 -375.7 4 -9.8 6.8 -18.4 6.8 -20.3 -0.1 -4.4 -4.3 -10.5 -9.5 -13.9 -7.7 -5.1 -17.1 -2.9 -22.5 5.3 -2.8 4.3 -13.1 31 -19.4 50.2 -24.1 74 -32.5 151.6 -24.4 224.2 11.3 99.8 48.1 189.5 108.5 264.3 9.4 11.7 15 16.7 18.5 16.7 0.5 0 2.7 -1 4.8 -2.3z m1502 -238 c19.3 -7 34.8 -25.4 40.7 -48.2 6.2 -23.4 -0.3 -48 -16.9 -64.5 -14.4 -14.3 -33.8 -20.2 -50.2 -15.4 -22.8 6.7 -39.3 25.3 -41.5 46.8 -0.6 5.9 -0.8 6.3 -4.5 8.4 -5 2.9 -9.2 9.9 -9.1 15.4 0.1 6.6 2.1 13.7 6.4 22.8 3.3 7 5.6 10.1 12.7 17.1 7.1 7.1 10.2 9.4 18.1 13.3 5.2 2.6 12.4 5.3 16 6.1 8.7 2 19.9 1.2 28.3 -1.8z"/>
  <path d="M1255 1383 c-18.6 -2.9 -33.7 -14.4 -42.1 -31.7 -5.2 -10.8 -6.9 -18.6 -6.9 -31.4 0 -19.2 5.3 -33.1 17.1 -45 22.1 -22.2 65.3 -24.2 90.5 -4.1 6.2 4.9 13.8 16 15.5 22.5 1.3 5.4 0.7 14.7 -1.2 19.2 -0.8 1.8 -1.4 7.5 -1.5 14 -0.1 8.1 -0.7 12.7 -2.3 17.6 -5.7 17.8 -21.5 32.4 -40.7 37.4 -7.4 1.9 -21.2 2.7 -28.4 1.5z m24.9 -50.8 c7.2 -3.6 9.4 -6.6 8.5 -11.8 -0.5 -3.6 -1.1 -4.4 -5 -6.3 -6.5 -3.1 -12 -4.1 -15.7 -2.9 -6.8 2.3 -11.2 8.7 -9.6 14.1 1.3 4.6 3.8 7.7 7.2 9.3 3.9 1.7 7.6 1.1 14.6 -2.4z"/>
  <path d="M1259 1177 c-6.6 -2.2 -13.3 -8.8 -14.9 -14.6 -2 -7.3 -1.1 -17.2 6 -64.1 19.6 -130.3 37.9 -240.4 40.9 -246.2 4.3 -8.5 13.9 -12.6 27.8 -11.9 10 0.5 17 3.4 21.7 9 7.7 9.1 7.7 11.2 -3.6 94.8 -9.3 69.5 -29.2 206.7 -30.9 213 -2.5 9.1 -11.2 17.5 -21.4 20.5 -6.9 2.1 -18.9 1.9 -25.6 -0.5z"/>
  <path d="M320.3 1385.5 c-7.8 -3.4 -16.1 -15.4 -20.3 -29.3 -1.8 -5.9 -2.2 -9.1 -1.8 -16.5 0.5 -11.5 3 -16.9 9.8 -20.7 4 -2.2 5.6 -2.5 14 -2.4 7.3 0.1 10.8 0.6 15.2 2.3 7.1 2.8 14.5 9.3 18.3 16.3 2.7 4.8 3 6.4 3.3 16.5 0.5 13.2 -1 18.8 -6.8 26.2 -5.3 6.7 -10.8 9.1 -20.7 9.1 -4.4 -0.1 -9.2 -0.7 -11 -1.5z"/>
  <path d="M1713.3 932.9 c-5.5 -1.6 -15.5 -9.2 -21.6 -16.5 -6.5 -7.7 -6.1 -5.2 -3.8 -23.7 1.9 -15.6 10.9 -21.7 31.7 -21.7 16.5 0 26.1 4.8 31 15.5 3.3 6.9 3.4 21.8 0.3 30.1 -2.6 6.8 -7.9 13.1 -13.4 15.5 -4.4 2 -18.4 2.5 -24.2 0.8z"/>
 </g>
 <g fill="#ffffff">
  <path d="M1181.5 1624.9 c-2.3 -0.5 -23.9 -11.9 -48 -25.4 l-44 -24.4 -3.5 4.2 c-14.3 17.1 -32 22.4 -52.8 15.6 -12.7 -4.2 -23.6 -13.7 -29.5 -25.8 -2.9 -6.1 -3.2 -7.3 -3.2 -17.1 0 -8.7 0.4 -11.6 2.4 -16.8 1.3 -3.4 2.2 -6.4 2 -6.6 -0.2 -0.1 -17.5 -9.6 -38.4 -21.1 -195 -107.1 -342.9 -198.1 -421.5 -259.3 -115 -89.7 -187.1 -187.3 -218.5 -295.9 -9.4 -32.1 -14.2 -62.6 -15.2 -94.8 -2.2 -73.2 18.4 -140.1 59.5 -193.5 8.9 -11.6 31.6 -34 43.3 -42.7 35 -26.2 76.5 -42.6 122.4 -48.4 15.8 -2 45.4 -1.5 62 1 74.3 11.1 141.1 48.9 243.7 137.8 l17.7 15.3 1.9 -2.8 c4.4 -6.2 20.1 -33.9 39.2 -69.2 45.1 -83.3 59.6 -104.3 103.9 -150.9 85.6 -90.3 172.8 -134.2 254.4 -128.1 44.9 3.3 85.3 17.4 124.7 43.4 58.6 38.7 105.6 99.5 128.8 166.7 8.6 24.8 13.7 46.5 17.3 73.3 4.5 33.8 3.2 93.4 -2.7 122.8 l-0.6 2.8 -15.6 0 c-33.1 0 -69.6 -5.5 -88.3 -13.4 l-3.6 -1.5 1.3 -7.8 c4.3 -24.4 5.9 -64.9 3.4 -87.3 -2.8 -26.4 -10.8 -54.6 -21.3 -75.2 -33.8 -66.6 -97.4 -110 -160.7 -109.8 -41.4 0.2 -93.2 23.8 -136 62.2 -35.2 31.5 -61.6 69.1 -108 153.3 -38.4 69.8 -51.1 90.7 -73.4 120.5 -17.8 23.8 -27.8 32.7 -42.5 37.7 -8.4 2.9 -20.5 3.1 -28.8 0.5 -10.4 -3.3 -11.1 -3.8 -58.5 -46.9 -31.6 -28.6 -50 -44.6 -67.3 -58.5 -50.3 -40.2 -92.4 -62.6 -134.5 -71.5 -12.2 -2.6 -46 -2.6 -58 0 -30 6.4 -58.1 21.7 -80.1 43.6 -6.4 6.4 -13.9 15 -16.6 19.1 -26.4 39.5 -32 87.7 -17.2 148.1 12 49.3 39.1 104.4 73.8 150.4 30.1 39.8 77 84.4 132.6 126 40.5 30.3 65.3 46.7 173.8 114.4 76.9 48 128.2 80.4 207.2 131.1 22 14.1 40.5 25.9 41.1 26.3 0.7 0.4 4.9 -5.7 10.9 -15.6 10.1 -16.6 31.3 -50.6 32.5 -52 0.3 -0.4 7.1 6.3 15.1 14.9 15.7 17 36.4 36.8 55.7 53.2 6.7 5.8 12.2 10.8 12.2 11.1 -0.1 0.3 -7.7 11.2 -17.1 24 -13.3 18.5 -16.7 23.7 -15.7 24.6 0.7 0.7 17.1 11.4 36.5 23.9 19.6 12.6 36.6 24.3 38.4 26.4 5.9 6.7 7.4 11.4 7.3 23.2 0 9.1 -0.4 11.4 -2.7 17 -8.3 19.8 -25.7 31.6 -41.2 27.9z"/>
  <path d="M1245.5 1451.4 c-23.8 -14.9 -60.1 -45 -88 -72.9 -52.9 -52.9 -86.8 -102.6 -110.3 -161.6 -18.5 -46.3 -28.9 -89.8 -34.7 -144.4 -2.2 -20.4 -3.1 -76 -1.6 -98.5 4.5 -67.9 19.1 -139.9 39.8 -196.7 l4.5 -12.2 5.6 3.8 c18.7 12.6 51.3 23 86.7 27.5 60.5 7.8 113.4 0.8 154.5 -20.5 5.2 -2.8 12.3 -7.1 15.8 -9.7 l6.3 -4.7 10.2 10 c26 25.6 68.8 45.7 115.2 53.9 20 3.5 32.1 4.7 54.5 5.3 34 0.8 55.8 -1.9 75.5 -9.6 4.3 -1.7 8 -2.9 8.1 -2.8 0.1 0.1 1.1 7 2.3 15.2 13.4 95.5 6.6 198.9 -19 287.4 -17 59.2 -43.8 114.6 -77.8 161.3 -29.9 41.2 -70.9 79.6 -121.6 114 -34 23.1 -73.8 44.8 -103.7 56.7 -12.4 4.9 -12.2 4.9 -22.3 -1.5z m35.4 -73.1 c23.8 -6.1 42.3 -28.2 42.2 -50.3 0 -3.6 -0.4 -7.8 -0.9 -9.5 -0.7 -2.3 -0.5 -3.6 0.9 -5.6 3.1 -4.4 4.3 -11.2 2.9 -16.6 -1.6 -6.5 -9.2 -17.6 -15.4 -22.5 -10.4 -8.3 -26.4 -13.8 -40.2 -13.8 -8.9 0 -20.3 2.8 -29.3 7.2 -19.7 9.6 -32.1 29.9 -32.1 52.7 0 9.9 2.1 18.3 6.9 28.4 12.2 25.2 37.9 37.1 65 30z m0.7 -203.8 c10.2 -3 18.9 -11.4 21.4 -20.5 3.6 -13.5 40 -274.6 40 -287.3 0 -19.9 -26.7 -30.9 -43.8 -18.1 -6 4.7 -6.7 7.3 -15.7 60.7 -14.2 84.3 -37.5 235.1 -37.5 242.5 0 6.3 2 11.3 6.4 15.9 7 7.4 18.3 10.1 29.2 6.8z"/>
  <path d="M1262.3 1337.5 c-6 -2.6 -9.7 -12.6 -7.4 -19.8 3.4 -10.3 16.2 -13.4 30.2 -7.1 5.5 2.5 5.5 2.5 6.8 8.5 1.6 7.2 0.7 9.7 -5.3 14.1 -7.3 5.2 -17.9 7.1 -24.3 4.3z"/>
  <path d="M1467.4 1454.8 c-5.3 -1.7 -12.5 -8 -15.7 -13.7 -2.3 -4.1 -3 -6.6 -3.1 -11.1 -0.1 -5.5 0.6 -7.3 11.9 -30.2 l12 -24.3 12.5 -13 c24.3 -25.2 39.6 -44.4 60.5 -76 14.5 -21.9 21.7 -34.5 33.1 -58 19 -39.3 31 -73.7 43.6 -125.5 l3.3 -13.5 4.5 -2.5 c6.3 -3.4 17.2 -3.5 24.8 -0.1 11.4 5.1 17.8 16.6 15.4 27.8 -1.1 4.8 -28.9 57.9 -82 156.3 -39.8 73.8 -91 166.9 -96.7 175.6 -5.3 8.2 -14.5 11.3 -24.1 8.2z"/>
  <path d="M319.3 1423.5 c-23.4 -5.1 -44.7 -30.9 -53.3 -64.6 -1.8 -6.8 -1.9 -9 -1 -20.3 1.4 -18 5.4 -28.7 14.6 -39.5 14 -16.3 39.6 -20.8 63.4 -11.2 14.2 5.8 28.6 19.1 35.7 32.9 5.9 11.4 7.7 20.6 7 35.1 -1 22.3 -8.2 39.5 -22.2 53.6 -8.2 8.2 -14.8 12 -24.2 14 -8.2 1.8 -11.9 1.8 -20 0z m21.3 -41.7 c5.6 -2.6 11.6 -9.9 13.9 -16.9 2.7 -7.9 1.7 -19.8 -2 -26.8 -6.1 -11.2 -17.8 -18.2 -30.5 -18.4 -12.5 -0.2 -19.7 6.7 -20.8 19.8 -1.1 14.9 10.7 38.1 22.1 43 4.8 2.1 12 1.8 17.3 -0.7z"/>
  <path d="M228 1212.2 c-2.1 -1.1 -7.8 -7.2 -14 -14.9 -89.4 -110.6 -127.4 -256.3 -105.5 -404.3 5.8 -39.7 18.4 -86 33.4 -123.4 6.7 -16.7 7.7 -18.4 12.8 -22.3 3.3 -2.5 4.4 -2.8 11.3 -2.8 6.7 0 8.2 0.4 11.8 2.8 6.6 4.3 9.7 9.8 9.7 17.1 0 5.3 -1 8.5 -6.9 23.1 -39.3 97.1 -47.7 203.1 -24 305.4 11.8 51.2 33.9 105.5 60.9 150.1 5.5 9.1 21.1 32.3 29.7 44.2 3.5 4.9 4.2 6.5 4.2 10.6 0 12 -12.9 19.9 -23.4 14.4z"/>
  <path d="M1711 975.5 c-3.6 -0.8 -10.8 -3.5 -16 -6.1 -7.9 -3.9 -11 -6.2 -18.1 -13.3 -7.1 -7 -9.4 -10.1 -12.7 -17.1 -4.7 -10 -6.5 -17.1 -6.6 -26 -0.1 -5.4 0.4 -7.3 2.7 -11.2 1.6 -2.8 4.4 -5.7 6.6 -7 3.7 -2.1 3.9 -2.5 4.5 -8.4 1.8 -17.6 12.7 -33 29.5 -41.8 9.6 -5 16.1 -6.6 26.6 -6.6 17.1 0 29.6 5.1 41.6 17 13.5 13.4 19.1 28.1 19.1 50 0 21.4 -6.3 38.5 -19.3 52.4 -12.5 13.4 -23.6 18.6 -40.9 19.2 -6.9 0.2 -12.7 -0.1 -17 -1.1z m23.5 -46.4 c16.7 -7.6 21 -35.7 7.2 -47.8 -10.2 -8.9 -31.6 -9.9 -42.2 -1.9 -5.6 4.3 -7.6 8 -8.5 15.9 -0.4 3.9 -1.1 8.1 -1.5 9.2 -1.4 4.6 17.7 22.8 26.8 25.4 5.4 1.6 13.9 1.2 18.2 -0.8z"/>
 </g>
</svg>